<svg width="217" height="60" viewBox="0 0 217 60" fill="none" xmlns="http://www.w3.org/2000/svg"><path d="M20.8688 47.7321C25.1828 43.819 40.9308 34.4066 9.85567 10.8226C35.5996 18.3314 47.6649 24.007 49.2082 27.8496C51.2775 33.0317 27.2521 44.8061 20.8688 47.7321ZM59.6601 30C59.6601 13.4313 46.2971 0 29.8125 0C13.3279 0 0 13.4313 0 30C0 46.5687 13.363 60 29.8476 60C46.3321 60 59.6601 46.5687 59.6601 30ZM168.318 51.4336H170.598V43.3255H173.333V41.4219H165.687V43.3255H168.353V51.4336H168.318ZM163.688 45.3349H160.006V43.255H163.899V41.3866H157.761V51.3984H164.109V49.53H160.006V47.168H163.688V45.3349ZM150.851 51.4336H153.131V43.3255H155.867V41.4219H148.221V43.3255H150.886V51.4336H150.851ZM137.979 41.3866V51.3984H140.54L142.574 47.8026C143.17 46.745 143.802 45.4407 144.257 44.2421H144.293C144.152 45.5464 144.117 46.9213 144.117 48.4724V51.4336H146.187V41.4219H143.872L141.732 45.3702C141.136 46.4277 140.47 47.7673 139.943 48.9307H139.873C139.979 47.5911 139.979 46.0047 139.979 44.3831V41.4219H137.979V41.3866ZM135.419 49.3537C134.963 49.53 134.226 49.671 133.525 49.671C131.526 49.671 130.333 48.4019 130.333 46.3925C130.333 44.1716 131.736 43.0787 133.525 43.0787C134.332 43.0787 134.963 43.255 135.419 43.4665L135.875 41.6686C135.489 41.4571 134.577 41.2103 133.42 41.2103C130.403 41.2103 127.983 43.114 127.983 46.5335C127.983 49.389 129.772 51.5394 133.209 51.5394C134.437 51.5394 135.349 51.3279 135.77 51.1163L135.419 49.3537ZM121.39 43.114C121.565 43.0787 121.845 43.0082 122.337 43.0082C123.459 43.0082 124.09 43.5723 124.09 44.4888C124.09 45.5112 123.354 46.1105 122.161 46.1105C121.845 46.1105 121.6 46.1105 121.39 46.04V43.114ZM119.145 51.4336H121.39V47.8378C121.6 47.8731 121.845 47.8731 122.161 47.8731C123.494 47.8731 124.616 47.5558 125.388 46.8155C125.984 46.2515 126.3 45.4054 126.3 44.4536C126.3 43.4665 125.879 42.6557 125.248 42.1269C124.581 41.5981 123.599 41.3161 122.196 41.3161C120.828 41.3161 119.846 41.4219 119.145 41.5276V51.4336ZM116.444 45.3349H112.761V43.255H116.655V41.3866H110.517V51.3984H116.865V49.53H112.761V47.168H116.444V45.3349ZM103.081 46.9918H103.853C104.975 46.9918 105.887 47.3796 105.887 48.4019C105.887 49.4595 104.975 49.8472 103.958 49.8472C103.572 49.8472 103.292 49.8472 103.081 49.812V46.9918ZM103.081 43.0435C103.257 43.0082 103.537 42.973 104.028 42.973C105.045 42.973 105.642 43.3608 105.642 44.1363C105.642 44.8766 105.01 45.3702 103.818 45.3702H103.081V43.0435ZM100.836 51.3631C101.327 51.4336 102.169 51.5041 103.292 51.5041C105.256 51.5041 106.483 51.1868 107.22 50.5875C107.851 50.094 108.272 49.3537 108.272 48.4724C108.272 47.168 107.43 46.322 106.308 46.0047V45.9694C107.43 45.5464 107.956 44.7356 107.956 43.819C107.956 42.9025 107.465 42.2327 106.764 41.8449C106.027 41.4219 105.186 41.2808 103.818 41.2808C102.695 41.2808 101.503 41.3866 100.907 41.4924V51.3631H100.836ZM89.8935 41.3866V51.3984H92.4539L94.4881 47.8026C95.0844 46.745 95.7157 45.4407 96.1717 44.2421H96.2067C96.0664 45.5464 96.0314 46.9213 96.0314 48.4724V51.4336H98.1007V41.4219H95.7858L93.6464 45.3702C93.0501 46.4277 92.3837 47.7673 91.8576 48.9307H91.7875C91.8927 47.5911 91.8927 46.0047 91.8927 44.3831V41.4219H89.8935V41.3866ZM78.9856 41.3866V51.3984H81.2654V47.2385H84.9832V51.4336H87.2279V41.4219H84.9832V45.2644H81.2654V41.4219H78.9856V41.3866ZM68.6038 41.3866L71.9709 48.2609C72.0411 48.4371 72.0761 48.5429 72.006 48.7192C71.8306 49.1774 71.3396 49.671 70.6732 49.671C70.3575 49.671 70.112 49.6357 69.9366 49.6005L69.7613 51.3984C70.0419 51.5041 70.3575 51.5746 70.8836 51.5746C72.0411 51.5746 72.8828 51.0811 73.5141 50.235C74.2507 49.3184 74.882 47.8026 75.4783 46.2515L77.3372 41.3866H74.9872L73.8999 44.8766C73.6544 45.7227 73.4791 46.3925 73.3388 46.8155H73.3037C73.0933 46.2162 72.8828 45.6169 72.6022 44.9119L71.1642 41.3866H68.6038ZM210.511 22.7732C210.617 24.007 211.353 24.6063 212.686 24.6063C214.019 24.6063 214.825 24.0423 214.931 22.7732H213.423C213.352 23.3372 213.177 23.6898 212.721 23.6898C212.23 23.6898 212.09 23.3725 212.055 22.7732H210.511ZM208.582 25.0646V35.0764H211.143L213.177 31.4806C213.773 30.423 214.405 29.1187 214.861 27.9201H214.896C214.755 29.2244 214.72 30.5993 214.72 32.1504V35.1116H216.79V25.0646H214.475L212.335 29.0129C211.739 30.0705 211.073 31.4101 210.546 32.5734H210.476C210.582 31.2338 210.582 29.6475 210.582 28.0259V25.0646H208.582ZM203.462 35.0764H205.706V25.0646H203.462V35.0764ZM197.464 30.2468C197.674 30.2115 197.955 30.1763 198.271 30.1763C199.112 30.1763 200.165 30.6345 200.165 31.7979C200.165 32.8907 199.218 33.49 198.236 33.49C197.92 33.49 197.674 33.49 197.464 33.4195V30.2468ZM195.254 25.0646V35.0411C195.745 35.1116 196.587 35.1821 197.674 35.1821C199.148 35.1821 200.796 34.9001 201.778 33.913C202.269 33.3843 202.585 32.6792 202.585 31.7626C202.585 29.5065 200.691 28.4841 198.621 28.4841C198.236 28.4841 197.78 28.5194 197.499 28.5899V25.0999H195.254V25.0646ZM184.311 25.0646V35.0764H186.591V30.8813H190.309V35.0764H192.554V25.0646H190.309V28.9072H186.591V25.0646H184.311ZM173.368 25.0646V35.0764H175.648V30.8813H179.366V35.0764H181.611V25.0646H179.366V28.9072H175.648V25.0646H173.368ZM170.668 29.0129H166.985V26.933H170.878V25.0646H164.74V35.0764H171.089V33.208H166.985V30.8461H170.668V29.0129ZM157.62 30.6345H158.392C159.514 30.6345 160.426 31.0223 160.426 32.0447C160.426 33.1022 159.514 33.49 158.497 33.49C158.112 33.49 157.831 33.49 157.62 33.4548V30.6345ZM157.62 26.6863C157.796 26.651 158.076 26.6157 158.567 26.6157C159.585 26.6157 160.181 27.0035 160.181 27.7791C160.181 28.5194 159.55 29.0129 158.357 29.0129H157.62V26.6863ZM155.376 35.0411C155.867 35.1116 156.709 35.1821 157.831 35.1821C159.795 35.1821 161.023 34.8649 161.759 34.2656C162.391 33.772 162.811 33.0317 162.811 32.1504C162.811 30.8461 161.97 30 160.812 29.6827V29.6475C161.935 29.2244 162.461 28.4136 162.461 27.4971C162.461 26.5805 161.97 25.9107 161.268 25.5229C160.532 25.0999 159.69 24.9589 158.322 24.9589C157.2 24.9589 156.007 25.0646 155.411 25.1704V35.0411H155.376ZM148.466 35.0764H150.746V26.9683H153.482V25.0646H145.836V26.9683H148.501V35.0764H148.466ZM143.696 33.0317C143.24 33.208 142.504 33.349 141.802 33.349C139.803 33.349 138.611 32.0799 138.611 30.0705C138.611 27.8496 140.014 26.7568 141.802 26.7568C142.609 26.7568 143.24 26.933 143.696 27.1445L144.152 25.3467C143.766 25.1351 142.855 24.8884 141.697 24.8884C138.681 24.8884 136.261 26.792 136.261 30.2115C136.261 33.067 138.049 35.2174 141.487 35.2174C142.714 35.2174 143.626 35.0059 144.047 34.7944L143.696 33.0317ZM129.667 26.792C129.842 26.7568 130.123 26.6863 130.614 26.6863C131.736 26.6863 132.368 27.2503 132.368 28.1669C132.368 29.1892 131.631 29.7885 130.438 29.7885C130.123 29.7885 129.877 29.7885 129.667 29.718V26.792ZM127.422 35.0764H129.667V31.4806C129.877 31.5159 130.123 31.5159 130.438 31.5159C131.771 31.5159 132.894 31.1986 133.665 30.4583C134.262 29.8942 134.577 29.0482 134.577 28.0964C134.577 27.1093 134.156 26.2985 133.525 25.7697C132.859 25.2409 131.877 24.9589 130.474 24.9589C129.106 24.9589 128.124 25.0646 127.422 25.1704V35.0764ZM119.916 30.8108L120.513 28.6957C120.688 28.1316 120.828 27.3561 120.969 26.7568H121.004C121.144 27.3561 121.319 28.0964 121.495 28.6957L122.126 30.8108H119.916ZM122.477 32.5029L123.248 35.0764H125.668L122.582 25.0646H119.601L116.549 35.0764H118.899L119.601 32.5029H122.477ZM109.745 26.8978H111.92V33.2432H108.623C108.903 32.785 109.149 32.1504 109.324 31.5511C109.605 30.5288 109.78 29.4007 109.78 28.2374V26.8978H109.745ZM107.641 25.0646V27.7438C107.641 28.9777 107.535 30.0705 107.255 31.0576C107.044 31.8331 106.694 32.5734 106.308 33.2785L105.466 33.349L105.571 37.6146H107.29L107.395 35.0764H113.217L113.323 37.6146H115.041L115.146 33.349L114.164 33.2785V25.0646H107.641ZM96.9082 25.0646L100.275 31.9389C100.345 32.1152 100.38 32.2209 100.31 32.3972C100.135 32.8555 99.6439 33.349 98.9775 33.349C98.6619 33.349 98.4164 33.3137 98.241 33.2785L98.0656 35.0764C98.3462 35.1821 98.6619 35.2526 99.188 35.2526C100.345 35.2526 101.187 34.7591 101.818 33.913C102.555 32.9965 103.186 31.4806 103.783 29.9295L105.642 25.0646H103.292L102.204 28.5546C101.959 29.4007 101.783 30.0705 101.643 30.4935H101.608C101.398 29.8942 101.187 29.2949 100.907 28.5899L99.4686 25.0646H96.9082ZM94.7336 33.0317C94.2777 33.208 93.5411 33.349 92.8397 33.349C90.8405 33.349 89.648 32.0799 89.648 30.0705C89.648 27.8496 91.0509 26.7568 92.8397 26.7568C93.6464 26.7568 94.2777 26.933 94.7336 27.1445L95.1896 25.3467C94.8038 25.1351 93.8919 24.8884 92.7344 24.8884C89.7181 24.8884 87.298 26.792 87.298 30.2115C87.298 33.067 89.0868 35.2174 92.524 35.2174C93.7516 35.2174 94.6635 35.0059 95.0844 34.7944L94.7336 33.0317ZM81.3355 26.6863C82.8788 26.6863 83.7556 28.2374 83.7556 30.0353C83.7556 31.9741 82.8788 33.4548 81.3706 33.4548C79.8624 33.4548 78.9505 32.0799 78.9505 30.1058C78.9505 28.1669 79.8274 26.6863 81.3355 26.6863ZM81.4057 24.8884C78.4595 24.8884 76.5655 27.1445 76.5655 30.141C76.5655 32.9965 78.2841 35.2526 81.2654 35.2526C84.1765 35.2526 86.1757 33.2785 86.1757 29.9647C86.1406 27.215 84.4571 24.8884 81.4057 24.8884ZM69.5508 25.0646V35.0764H71.8306V26.933H75.6186V25.0646H69.5508ZM210.722 6.41598C210.827 7.64982 211.564 8.24912 212.896 8.24912C214.229 8.24912 215.036 7.68508 215.141 6.41598H213.598C213.528 6.98002 213.352 7.33255 212.896 7.33255C212.44 7.33255 212.265 7.01528 212.23 6.41598H210.722ZM208.793 8.7074V18.7192H211.353L213.387 15.1234C213.984 14.0658 214.615 12.7615 215.071 11.5629H215.106C214.966 12.8672 214.931 14.2421 214.931 15.7932V18.7544H217V8.7074H214.685L212.546 12.6557C211.949 13.7133 211.283 15.0529 210.757 16.2162H210.687C210.792 14.8766 210.792 13.2902 210.792 11.6686V8.7074H208.793ZM197.85 8.7074V18.7192H200.41L202.444 15.1234C203.041 14.0658 203.672 12.7615 204.128 11.5629H204.163C204.023 12.8672 203.988 14.2421 203.988 15.7932V18.7544H206.057V8.7074H203.777L201.638 12.6557C201.042 13.7133 200.375 15.0529 199.849 16.2162H199.779C199.884 14.8766 199.884 13.2902 199.884 11.6686V8.7074H197.85ZM188.17 8.7074V18.7192H190.414V14.5593H190.835C192.063 14.5593 192.519 15.4054 192.834 16.5335C193.08 17.2738 193.255 18.0494 193.606 18.7192H196.026C195.57 17.7321 195.219 16.6392 194.869 15.5817C194.448 14.3831 193.887 13.5018 192.589 13.1492L196.061 8.7074H193.325L190.59 12.8672H190.414V8.7074H188.17ZM185.609 16.6745C185.153 16.8508 184.417 16.9918 183.715 16.9918C181.716 16.9918 180.524 15.7227 180.524 13.7133C180.524 11.4924 181.926 10.3995 183.715 10.3995C184.522 10.3995 185.153 10.5758 185.609 10.7873L186.065 8.98942C185.679 8.77791 184.767 8.53114 183.61 8.53114C180.594 8.53114 178.174 10.4348 178.174 13.8543C178.174 16.7098 179.962 18.8602 183.4 18.8602C184.627 18.8602 185.539 18.6486 185.96 18.4371L185.609 16.6745ZM171.264 13.9248C171.545 13.8895 171.825 13.8543 172.141 13.8543C173.228 13.8543 174.105 14.3126 174.105 15.4759C174.105 16.604 173.228 17.1328 172.141 17.1328C171.825 17.1328 171.545 17.1328 171.299 17.0623V13.9248H171.264ZM169.054 8.7074V18.6839C169.545 18.7544 170.387 18.8249 171.51 18.8249C173.053 18.8249 174.736 18.5429 175.683 17.5558C176.174 17.027 176.49 16.322 176.49 15.3702C176.49 13.1492 174.666 12.1269 172.527 12.1269C172.106 12.1269 171.615 12.1622 171.299 12.1974V8.7074H169.054ZM159.62 8.7074V13.0787C159.62 14.5946 159.479 15.8637 158.848 16.4982C158.603 16.7803 158.182 16.9565 157.726 17.027L158.006 18.8602C158.813 18.8602 159.479 18.6486 159.97 18.3666C161.479 17.4853 161.794 15.5112 161.794 12.9377V10.5758H164.074V18.7192H166.319V8.7074H159.62ZM151.518 10.3643C153.061 10.3643 153.938 11.9154 153.938 13.7133C153.938 15.6522 153.061 17.1328 151.553 17.1328C150.045 17.1328 149.133 15.7579 149.133 13.7838C149.098 11.8096 149.974 10.3643 151.518 10.3643ZM151.588 8.56639C148.642 8.56639 146.748 10.8226 146.748 13.819C146.748 16.6745 148.466 18.9307 151.448 18.9307C154.359 18.9307 156.358 16.9565 156.358 13.6428C156.323 10.8578 154.639 8.56639 151.588 8.56639ZM136.436 8.7074V18.7192H138.716V10.5758H142.258V18.7192H144.538V8.7074H136.436ZM129.421 10.3643C130.965 10.3643 131.841 11.9154 131.841 13.7133C131.841 15.6522 130.965 17.1328 129.456 17.1328C127.948 17.1328 127.036 15.7579 127.036 13.7838C127.001 11.8096 127.913 10.3643 129.421 10.3643ZM129.492 8.56639C126.545 8.56639 124.651 10.8226 124.651 13.819C124.651 16.6745 126.37 18.9307 129.351 18.9307C132.262 18.9307 134.262 16.9565 134.262 13.6428C134.226 10.8578 132.543 8.56639 129.492 8.56639ZM118.969 18.7544H121.249V10.6463H123.985V8.74266H116.339V10.6463H119.005V18.7544H118.969ZM114.27 16.6745C113.814 16.8508 113.077 16.9918 112.376 16.9918C110.376 16.9918 109.184 15.7227 109.184 13.7133C109.184 11.4924 110.587 10.3995 112.376 10.3995C113.182 10.3995 113.814 10.5758 114.27 10.7873L114.726 8.98942C114.34 8.77791 113.428 8.53114 112.27 8.53114C109.254 8.53114 106.834 10.4348 106.834 13.8543C106.834 16.7098 108.623 18.8602 112.06 18.8602C113.288 18.8602 114.199 18.6486 114.62 18.4371L114.27 16.6745ZM99.7491 14.4536L100.345 12.3384C100.521 11.7744 100.661 10.9988 100.801 10.3995H100.836C100.977 10.9988 101.152 11.7391 101.327 12.3384L101.959 14.4536H99.7491ZM102.274 16.181L103.046 18.7544H105.466L102.38 8.74266H99.4335L96.3821 18.7544H98.732L99.4335 16.181H102.274ZM89.9286 14.3126H90.7002C91.8225 14.3126 92.7344 14.7004 92.7344 15.7227C92.7344 16.7803 91.8225 17.168 90.8054 17.168C90.4196 17.168 90.139 17.168 89.9286 17.1328V14.3126ZM89.9286 10.3643C90.1039 10.329 90.3845 10.2938 90.8755 10.2938C91.8927 10.2938 92.4889 10.6816 92.4889 11.4571C92.4889 12.1974 91.8576 12.691 90.6651 12.691H89.9286V10.3643ZM87.7189 18.6839C88.21 18.7544 89.0517 18.8249 90.1741 18.8249C92.1382 18.8249 93.3658 18.5076 94.1023 17.9083C94.7336 17.4148 95.1545 16.6745 95.1545 15.7932C95.1545 14.4888 94.3128 13.6428 93.1553 13.3255V13.2902C94.2777 12.8672 94.8038 12.0564 94.8038 11.1398C94.8038 10.2233 94.3128 9.55347 93.6113 9.16569C92.8747 8.74266 92.033 8.60165 90.6651 8.60165C89.5427 8.60165 88.3502 8.7074 87.754 8.81316V18.6839H87.7189ZM85.0183 12.6557H81.3355V10.5758H85.2287V8.7074H79.0908V18.7192H85.4391V16.8508H81.3355V14.4888H85.0183V12.6557ZM76.5305 16.6745C76.0745 16.8508 75.338 16.9918 74.6365 16.9918C72.6373 16.9918 71.4448 15.7227 71.4448 13.7133C71.4448 11.4924 72.8477 10.3995 74.6365 10.3995C75.4432 10.3995 76.0745 10.5758 76.5305 10.7873L76.9864 8.98942C76.6006 8.77791 75.6887 8.53114 74.5313 8.53114C71.515 8.53114 69.0949 10.4348 69.0949 13.8543C69.0949 16.7098 70.8836 18.8602 74.3208 18.8602C75.5484 18.8602 76.4603 18.6486 76.8812 18.4371L76.5305 16.6745Z" fill="#fff"/></svg>