<svg width="3818" height="376" viewBox="0 0 3818 376" fill="none" xmlns="http://www.w3.org/2000/svg"><path d="M825.858 141.164C856.791 140.834 887.8 144.504 918.115 150.584C948.418 156.795 978.159 165.065 1007.55 173.886C1036.96 182.647 1066.1 191.938 1095.51 199.908C1110.18 203.979 1125.06 207.269 1139.87 210.789C1143.55 211.719 1147.3 212.409 1151.04 213.139L1162.26 215.339C1169.75 216.77 1177.18 218.4 1184.75 219.47L1207.34 223.07C1211.09 223.73 1214.89 224.11 1218.68 224.61L1230.04 226.02L1241.4 227.43L1244.24 227.78L1247.09 228.04L1252.8 228.56L1275.61 230.631C1277.51 230.831 1279.42 230.941 1281.33 231.041L1287.05 231.381L1298.49 232.061L1309.93 232.761C1313.75 232.981 1317.57 233.021 1321.39 233.171L1344.32 233.881C1351.96 233.961 1359.62 233.941 1367.26 233.981L1378.72 234.021L1390.2 233.771L1413.13 233.261L1436.06 232.221L1447.53 231.691L1458.98 230.911L1481.88 229.341L1504.76 227.32C1508.57 226.97 1512.38 226.67 1516.19 226.29L1527.6 225.07L1550.44 222.65L1573.24 219.86L1584.64 218.45L1596.02 216.89L1618.79 213.749L1641.53 210.319L1652.89 208.599L1664.24 206.779L1686.94 203.138L1709.62 199.278L1720.96 197.348L1732.29 195.328C1792.72 184.577 1853.08 172.906 1913.59 161.325C1974.1 149.724 2034.89 138.613 2096.11 128.863C2103.74 127.592 2111.43 126.482 2119.1 125.342C2126.78 124.222 2134.43 123.032 2142.13 121.972C2157.53 119.922 2172.9 117.682 2188.37 115.912C2219.22 112.001 2250.27 108.991 2281.34 106.481C2312.41 103.951 2343.57 102.401 2374.73 101.27L2398.11 100.56L2421.49 100.18C2429.29 100 2437.09 100.07 2444.88 100.03C2452.68 100.03 2460.48 99.9403 2468.27 100.12C2530.64 100.84 2592.97 104.171 2654.95 110.341L2678.19 112.771C2685.92 113.631 2693.64 114.601 2701.37 115.512C2716.84 117.302 2732.24 119.442 2747.6 121.592C2778.32 125.902 2808.83 130.783 2839.26 135.553C2869.68 140.334 2900.03 144.984 2930.38 149.124L2941.76 150.654C2945.56 151.174 2949.36 151.574 2953.16 152.034L2975.96 154.725L2987.36 156.075C2991.17 156.525 2994.96 157.005 2998.78 157.315L3021.66 159.455L3044.55 161.595L3067.49 163.215L3090.43 164.845L3096.17 165.245L3101.92 165.515L3113.41 166.056C3144.06 167.726 3174.76 168.376 3205.47 168.806C3266.9 169.426 3328.4 167.286 3389.71 162.605C3451.04 157.985 3512.16 150.784 3572.9 141.164C3633.64 131.523 3693.95 119.372 3753.72 104.961C3519.17 176.306 3267.3 203.589 3019.06 185.297L2995.78 183.567C2991.9 183.317 2988.03 182.907 2984.17 182.527L2972.56 181.377L2949.34 179.077C2945.47 178.677 2941.59 178.347 2937.73 177.886L2926.15 176.556C2895.3 172.876 2864.62 168.596 2834.06 164.265C2803.5 159.945 2773.04 155.565 2742.64 151.584C2727.43 149.614 2712.25 147.674 2697.04 146.074C2689.44 145.264 2681.84 144.394 2674.22 143.624L2651.38 141.474L2645.66 140.934L2639.94 140.474L2628.5 139.563L2617.06 138.643C2613.24 138.313 2609.43 138.113 2605.61 137.843L2582.7 136.333L2559.76 135.143C2552.12 134.693 2544.47 134.493 2536.82 134.183C2529.17 133.903 2521.52 133.563 2513.86 133.443L2490.9 132.913L2467.94 132.723C2406.7 132.323 2345.44 134.503 2284.45 139.363C2253.95 141.774 2223.51 144.644 2193.14 148.434C2177.94 150.144 2162.78 152.314 2147.6 154.305C2140.02 155.335 2132.45 156.495 2124.87 157.585C2117.29 158.705 2109.7 159.755 2102.13 160.955L2079.41 164.465C2071.83 165.626 2064.26 166.926 2056.69 168.146C2041.55 170.576 2026.42 173.206 2011.29 175.786C1981.03 181.037 1950.78 186.487 1920.48 191.938L1829.5 208.319C1814.3 210.989 1799.13 213.729 1783.89 216.27L1761.04 220.14L1738.15 223.88C1677.12 233.901 1615.59 242.322 1553.68 248.362L1530.43 250.382L1518.8 251.372C1514.92 251.662 1511.02 251.892 1507.14 252.152L1483.83 253.672L1460.47 254.743L1448.78 255.263L1437.09 255.543L1413.7 256.073L1390.28 256.013L1378.58 255.953L1366.87 255.603C1359.08 255.353 1351.27 255.163 1343.48 254.873L1320.1 253.522C1316.21 253.272 1312.31 253.122 1308.42 252.792L1296.76 251.772L1285.1 250.732L1279.27 250.212C1277.33 250.042 1275.39 249.872 1273.46 249.612L1250.24 246.782L1244.44 246.072L1241.54 245.712L1238.64 245.262L1227.09 243.462L1215.56 241.662C1211.72 241.041 1207.86 240.531 1204.04 239.731L1181.13 235.311C1173.47 233.951 1165.94 232.031 1158.37 230.311L1147.03 227.67C1143.26 226.79 1139.46 225.95 1135.74 224.88C1120.81 220.76 1105.8 216.91 1091.12 212.189C1061.7 202.948 1032.94 192.578 1004.13 182.557C975.313 172.566 946.366 163.025 916.747 155.455C887.16 147.894 856.747 142.724 825.858 141.164Z" fill="url(#paint0_linear)"/><path d="M3817.59 135.66C3752.94 138.2 3687.43 147.401 3621.91 161.183C3556.36 174.965 3490.77 193.048 3424.9 213.021C3359.02 232.964 3292.8 254.757 3225.34 275.95C3157.86 297.113 3089.08 317.746 3017.99 334.889C3000.19 339.119 2982.32 343.26 2964.24 346.98C2955.24 348.921 2946.11 350.631 2937.05 352.441L2923.34 354.962L2916.49 356.212L2909.6 357.382C2891.28 360.592 2872.73 363.273 2854.12 365.733L2840.12 367.443C2835.46 368.044 2830.75 368.464 2826.07 368.984C2816.71 370.034 2807.27 370.784 2797.85 371.624C2793.14 372.014 2788.4 372.294 2783.67 372.634L2776.58 373.124L2769.47 373.494L2755.24 374.204L2740.96 374.644C2738.59 374.704 2736.21 374.805 2733.82 374.835L2726.67 374.915C2721.9 374.945 2717.15 375.055 2712.37 375.025C2702.82 374.915 2693.29 374.905 2683.74 374.514C2645.55 373.394 2607.33 369.724 2569.77 363.803L2566.24 363.273L2562.76 362.663L2555.79 361.443C2551.16 360.612 2546.49 359.842 2541.88 358.962L2528.14 356.232L2521.28 354.862L2514.5 353.391L2500.95 350.421C2496.43 349.441 2492.01 348.331 2487.55 347.29C2483.09 346.22 2478.61 345.2 2474.2 344.1L2460.99 340.78C2425.8 331.868 2391.72 322.107 2358.06 312.745C2341.21 308.035 2324.54 303.484 2307.89 299.053C2299.58 296.923 2291.27 294.723 2282.97 292.673C2274.69 290.672 2266.39 288.542 2258.13 286.722C2225.09 279.121 2191.61 272.9 2157.57 267.879C2089.54 257.787 2019.82 252.517 1949.44 249.326C1879.04 246.126 1807.92 245.006 1736.39 243.255C1664.88 241.505 1592.87 239.085 1520.88 233.194C1484.9 230.263 1448.9 226.403 1413.18 221.402C1377.46 216.421 1341.98 210.371 1306.83 203.26C1236.53 189.058 1167.57 170.655 1100.64 148.262C1096.47 146.851 1092.25 145.511 1088.11 144.041L1075.65 139.67C1071.51 138.2 1067.33 136.79 1063.21 135.27L1050.84 130.709C1034.31 124.698 1018.1 118.277 1001.95 112.026C985.789 105.755 969.699 99.5645 953.489 93.7236C937.279 87.9128 920.949 82.522 904.393 77.8413C896.133 75.441 887.765 73.3907 879.386 71.4104L866.745 68.7L853.996 66.4497C836.951 63.6993 819.69 62.199 802.358 61.989C798.025 61.919 793.692 62.069 789.347 62.159C785.002 62.3791 780.657 62.5291 776.312 62.8891C771.967 63.1592 767.622 63.6192 763.265 64.0193C758.92 64.5094 754.575 64.9794 750.242 65.5895C741.564 66.7397 732.91 68.1199 724.268 69.6901C715.626 71.2404 707.008 72.9506 698.401 74.7709C681.2 78.4014 664 82.382 646.811 86.3125C629.622 90.2731 612.457 94.3037 595.316 98.4043C561.01 106.585 526.811 115.077 492.708 123.828C526.274 113.727 559.971 103.885 593.788 94.3237C610.69 89.543 627.629 84.8323 644.603 80.1917C661.577 75.571 678.527 70.9203 695.68 66.5597C704.25 64.3794 712.88 62.2991 721.582 60.3688C730.272 58.4185 739.058 56.6582 747.915 55.118C752.331 54.3179 756.808 53.6478 761.26 52.9577C765.748 52.3576 770.224 51.7075 774.748 51.2375C779.26 50.6874 783.796 50.3373 788.344 49.9373C792.904 49.6572 797.464 49.3172 802.048 49.2072C820.382 48.6971 838.777 49.5572 856.909 51.7475L870.457 53.5878L883.874 55.8981C892.755 57.6184 901.636 59.4186 910.361 61.569C927.86 65.7496 945.025 70.6503 961.94 75.941C978.83 81.2518 995.482 86.8726 1012.03 92.5135C1028.58 98.1443 1044.97 103.845 1061.48 109.086L1073.85 113.066C1077.96 114.397 1082.14 115.617 1086.28 116.897L1098.73 120.688C1102.88 121.958 1107.08 123.108 1111.24 124.328C1177.98 143.641 1246.27 158.903 1315.39 169.995C1349.94 175.546 1384.7 180.046 1419.59 183.497C1454.47 186.957 1489.46 189.308 1524.6 190.768C1594.9 193.708 1665.61 193.298 1736.7 192.208C1807.81 191.128 1879.37 189.398 1951.55 189.808C2023.71 190.218 2096.61 192.748 2169.65 200.599C2206.14 204.5 2242.71 209.771 2278.89 216.561C2287.98 218.192 2296.86 220.082 2305.82 221.872C2314.75 223.703 2323.57 225.653 2332.43 227.553C2350.01 231.474 2367.51 235.484 2384.75 239.565C2419.29 247.676 2453.23 255.897 2486.78 262.948L2499.35 265.579C2503.54 266.449 2507.71 267.219 2511.88 268.049C2516.05 268.839 2520.24 269.719 2524.39 270.439L2536.87 272.65L2543.1 273.75L2549.31 274.72L2561.72 276.67C2565.85 277.29 2569.97 277.79 2574.1 278.36L2580.28 279.191L2583.37 279.611L2586.45 279.941C2652 287.742 2718.6 286.702 2784.76 278.751C2850.96 270.779 2916.63 255.977 2981.68 237.515C3046.76 218.982 3111.27 196.759 3176.15 173.405C3241.05 150.032 3306.33 125.478 3373.39 102.105C3440.42 78.7214 3509.34 56.5082 3581.25 38.3056C3653.1 20.1229 3728.26 6.1709 3805.94 0L3817.59 135.66Z" fill="url(#paint1_linear)"/><path d="M0.505859 237.699C17.3288 243.239 34.6703 247.3 52.2214 249.97C69.7945 252.56 87.5662 253.73 105.316 253.73C123.065 253.69 140.782 252.45 158.355 250.31C175.928 248.15 193.347 245.06 210.589 241.319C227.842 237.589 244.886 233.079 261.786 228.168C278.686 223.248 295.41 217.817 312.001 212.017C345.14 200.436 377.937 187.515 411.031 175.034C444.147 162.573 477.628 150.482 512.101 140.311C529.321 135.191 546.839 130.69 564.589 126.87C582.339 123.03 600.386 120.02 618.654 117.989C655.102 113.769 692.742 114.309 729.156 119.7C738.291 120.95 747.314 122.61 756.316 124.33C765.285 126.16 774.22 128.1 783.045 130.32C800.729 134.681 818.114 139.781 835.213 145.372C869.444 156.493 902.626 169.354 935.544 182.025C968.462 194.706 1001.02 207.417 1034.19 218.007C1100.52 239.489 1169.11 255.14 1238.73 265.181C1308.37 275.182 1378.98 279.812 1449.62 279.802C1484.94 279.812 1520.29 278.782 1555.58 276.672C1590.87 274.572 1626.1 271.352 1661.22 267.261C1731.46 259.171 1801.26 247.47 1870.33 232.759C1904.88 225.438 1939.19 217.327 1973.56 208.737C2007.95 200.176 2042.33 191.215 2077.03 182.775C2111.7 174.274 2146.63 166.183 2181.97 159.143C2217.31 152.132 2253.08 146.252 2289.27 142.391C2307.36 140.461 2325.55 139.021 2343.81 138.151C2362.07 137.281 2380.39 137.091 2398.7 137.571C2403.28 137.701 2407.86 137.791 2412.44 138.071C2417.02 138.331 2421.59 138.491 2426.17 138.831L2439.88 139.871L2453.55 141.261L2460.38 141.971L2467.16 142.851L2480.73 144.642L2494.2 146.752L2500.93 147.812L2507.62 149.002L2520.98 151.402L2534.26 154.012C2538.69 154.862 2543.09 155.792 2547.48 156.733L2560.67 159.563C2578.17 163.453 2595.58 167.513 2612.9 171.644C2630.22 175.744 2647.47 179.904 2664.72 183.835C2673.34 185.845 2681.97 187.705 2690.58 189.615C2694.9 190.595 2699.21 191.425 2703.52 192.345C2707.84 193.225 2712.15 194.186 2716.48 194.976L2729.45 197.446C2733.77 198.286 2738.11 198.946 2742.44 199.706C2751.1 201.276 2759.8 202.446 2768.49 203.746C2772.85 204.336 2777.21 204.846 2781.57 205.396L2788.11 206.206L2794.68 206.877C2799.06 207.307 2803.44 207.787 2807.82 208.187L2820.99 209.247C2838.56 210.497 2856.2 211.387 2873.85 211.507L2880.47 211.597C2882.68 211.617 2884.88 211.577 2887.09 211.567L2900.34 211.457C2909.16 211.157 2918.01 211.037 2926.82 210.517C2997.45 207.107 3067.73 195.156 3135.27 175.064C3202.83 154.992 3267.66 126.84 3327.54 91.2974C3270.06 129.97 3206.17 161.113 3138.74 184.005L3126.06 188.235L3113.28 192.205L3106.88 194.176L3100.44 196.006C3096.13 197.216 3091.84 198.486 3087.52 199.636C3078.86 201.886 3070.21 204.226 3061.46 206.216C3052.76 208.377 3043.96 210.177 3035.17 212.077C2999.95 219.227 2964.17 224.378 2928.11 227.178C2919.11 228.008 2910.07 228.368 2901.03 228.928L2887.46 229.418C2885.2 229.488 2882.94 229.598 2880.68 229.638L2873.88 229.728C2855.77 230.098 2837.63 229.688 2819.52 228.898L2805.94 228.178C2801.42 227.898 2796.89 227.498 2792.37 227.168L2785.59 226.648L2778.83 225.978C2774.31 225.518 2769.8 225.098 2765.29 224.598C2756.3 223.468 2747.26 222.468 2738.34 221.078C2733.87 220.408 2729.37 219.818 2724.93 219.067L2711.57 216.857C2676 210.807 2641.03 203.056 2606.27 195.576C2588.89 191.805 2571.57 188.145 2554.24 184.665L2541.24 182.155C2536.91 181.324 2532.58 180.464 2528.25 179.724L2515.25 177.404L2502.26 175.304L2495.76 174.264L2489.25 173.344L2476.24 171.534L2463.23 170.044L2456.72 169.304L2450.21 168.743C2432.87 167.023 2415.46 166.323 2398.02 166.113C2380.58 165.953 2363.12 166.303 2345.65 167.383C2328.2 168.443 2310.76 170.064 2293.36 172.144C2275.97 174.204 2258.6 176.824 2241.3 179.784C2223.99 182.775 2206.71 186.005 2189.48 189.625C2155.02 196.836 2120.72 205.116 2086.42 213.877L1983.27 240.519C1948.75 249.36 1913.87 257.811 1878.8 265.451C1808.63 280.572 1737.58 292.633 1665.89 300.984C1594.21 309.235 1521.88 313.685 1449.45 313.325C1413.23 313.115 1377.01 311.735 1340.87 309.065C1304.75 306.374 1268.69 302.484 1232.92 296.924C1161.38 285.903 1090.77 269.221 1022.75 246.06C954.43 223.098 890.801 192.985 824.965 170.364C808.517 164.683 791.948 159.513 775.224 155.002C766.873 152.712 758.456 150.712 750.017 148.802C741.567 147.002 733.095 145.272 724.567 143.922C716.051 142.471 707.491 141.411 698.919 140.461C690.337 139.661 681.743 138.951 673.128 138.701C664.512 138.331 655.874 138.411 647.226 138.571C638.577 138.871 629.917 139.291 621.269 140.091C586.641 143.051 552.289 150.092 518.422 159.033C484.523 167.993 451.119 179.054 417.727 190.475L367.567 207.747C350.821 213.487 333.965 219.187 316.921 224.448C299.9 229.738 282.702 234.649 265.349 239.059C247.997 243.479 230.468 247.38 212.751 250.51C195.046 253.63 177.186 256.16 159.205 257.601C141.223 259.021 123.154 259.561 105.139 258.831C87.136 258.011 69.1878 256.06 51.6147 252.59C34.0967 249.09 16.9317 244.119 0.505859 237.699Z" fill="url(#paint2_linear)"/><path d="M230.159 286.022L242.88 287.042L249.236 287.552C251.361 287.662 253.487 287.692 255.612 287.772L268.344 288.192C272.595 288.222 276.836 288.102 281.076 288.062L287.442 287.972C289.557 287.952 291.682 287.762 293.797 287.662L306.497 286.932C310.727 286.632 314.935 286.142 319.154 285.752C323.363 285.332 327.582 284.982 331.769 284.342L344.34 282.663C346.445 282.413 348.517 282.023 350.61 281.683L356.859 280.633C365.211 279.343 373.479 277.584 381.767 275.954L384.875 275.334L387.962 274.634L394.136 273.235L400.31 271.845C402.371 271.395 404.422 270.915 406.473 270.395C414.654 268.336 422.857 266.386 430.986 264.106C435.055 262.997 439.135 261.927 443.194 260.777L455.349 257.268C459.408 256.118 463.446 254.898 467.483 253.679L479.596 250.029C495.713 245.02 511.799 239.911 527.864 234.663C560.003 224.215 592.207 213.647 624.902 204.069C657.565 194.461 690.868 186.112 724.898 180.194C727.024 179.834 729.139 179.384 731.275 179.094L737.694 178.144C741.977 177.524 746.25 176.844 750.544 176.294L763.489 174.865C765.647 174.635 767.804 174.365 769.962 174.175L776.478 173.705L789.509 172.775L802.593 172.375L809.14 172.175L815.699 172.255L828.826 172.445C833.194 172.655 837.574 172.965 841.942 173.215L848.511 173.625C850.701 173.755 852.869 174.075 855.048 174.285L868.111 175.725C869.2 175.825 870.279 175.995 871.358 176.174L874.594 176.684L881.067 177.704L887.54 178.724C889.708 179.034 891.812 179.544 893.959 179.944L906.766 182.503C911.028 183.393 915.215 184.473 919.434 185.443C923.653 186.452 927.893 187.402 932.037 188.572L944.545 191.951C948.711 193.081 952.802 194.381 956.935 195.58C965.213 197.97 973.331 200.659 981.491 203.259C985.582 204.549 989.587 205.968 993.636 207.318C997.662 208.698 1001.74 210.018 1005.74 211.457C1013.75 214.287 1021.78 217.096 1029.74 219.985L1077.35 237.122C1085.27 239.861 1093.17 242.721 1101.11 245.33L1113 249.31L1124.91 253.079L1130.87 254.958L1136.85 256.708L1148.8 260.217L1160.83 263.417C1164.84 264.476 1168.84 265.586 1172.89 266.486L1185.01 269.345L1188.04 270.055L1191.1 270.685L1197.21 271.955C1201.29 272.775 1205.34 273.695 1209.43 274.444L1221.71 276.664C1223.76 277.024 1225.8 277.424 1227.85 277.754L1234.03 278.703L1246.37 280.613L1258.77 282.213L1264.97 283.013C1267.03 283.283 1269.11 283.463 1271.18 283.682L1283.63 284.982C1287.77 285.412 1291.95 285.682 1296.1 286.052C1304.41 286.822 1312.77 287.262 1321.1 287.772C1325.26 288.072 1329.45 288.162 1333.63 288.342C1337.8 288.492 1341.98 288.701 1346.17 288.801L1358.72 289.031C1360.81 289.061 1362.9 289.121 1365 289.131L1371.28 289.121L1383.84 289.101L1396.41 288.851C1404.78 288.751 1413.17 288.322 1421.54 288.032C1455.06 286.502 1488.56 283.593 1521.98 279.713C1555.4 275.774 1588.73 270.765 1622.01 265.146C1688.56 253.879 1754.83 240.081 1821.26 226.134C1854.49 219.206 1887.78 212.297 1921.21 205.648C1954.62 199.01 1988.16 192.631 2021.9 186.942C2055.64 181.283 2089.55 176.204 2123.69 172.195C2157.81 168.196 2192.13 164.997 2226.62 163.507C2261.1 161.957 2295.72 161.657 2330.31 163.357C2364.9 164.987 2399.45 168.366 2433.63 174.055L2446.44 176.204L2459.18 178.624L2465.55 179.854L2471.87 181.183C2476.08 182.083 2480.32 182.923 2484.51 183.883C2501.3 187.612 2517.91 191.661 2534.44 195.84C2567.45 204.279 2600.06 213.137 2632.76 220.785C2636.84 221.785 2640.94 222.645 2645.03 223.575C2649.13 224.485 2653.22 225.434 2657.31 226.244L2669.6 228.784L2681.91 231.103C2698.33 234.043 2714.78 236.692 2731.35 238.242C2764.46 241.701 2797.93 242.491 2831.33 240.741C2864.75 238.932 2898.04 234.613 2930.98 228.354L2937.16 227.204C2939.22 226.804 2941.26 226.344 2943.32 225.914L2955.62 223.295C2959.73 222.465 2963.79 221.415 2967.87 220.455L2980.11 217.526L2992.28 214.317C2996.33 213.217 3000.41 212.217 3004.43 211.037L3016.51 207.528L3022.56 205.778C3024.58 205.199 3026.56 204.539 3028.57 203.929C3060.67 194.101 3092.26 182.693 3123.42 170.236C3154.59 157.798 3185.28 144.181 3215.59 129.844C3245.89 115.477 3275.84 100.38 3305.52 84.8031C3320.39 77.0547 3335.16 69.1364 3349.89 61.158L3393.98 37.0029L3372.7 50.2302C3365.56 54.5793 3358.45 58.9684 3351.28 63.2876C3336.97 71.9358 3322.61 80.534 3308.14 88.9623C3279.18 105.809 3249.89 122.166 3220.04 137.712C3160.42 168.846 3098.59 196.75 3034.04 218.786C2969.56 240.801 2901.98 256.298 2832.87 261.717C2798.34 264.406 2763.48 264.246 2728.84 261.347C2711.49 260.067 2694.26 257.658 2677.2 254.958L2664.41 252.819L2651.71 250.429C2647.47 249.659 2643.27 248.76 2639.06 247.9C2634.87 247.02 2630.64 246.2 2626.46 245.25C2592.94 237.992 2559.97 229.624 2527.13 221.815C2510.71 217.946 2494.32 214.137 2477.92 210.737C2473.82 209.858 2469.71 209.098 2465.61 208.278L2459.46 207.068L2453.3 205.958L2440.98 203.789L2428.62 201.879C2395.66 196.82 2362.32 194.041 2328.88 192.721C2295.44 191.381 2261.88 191.991 2228.36 193.811C2194.85 195.63 2161.35 198.83 2127.94 202.969C2094.53 207.078 2061.2 212.267 2027.94 218.036C1961.4 229.454 1895.15 243.441 1828.69 257.348C1762.2 271.155 1695.46 285.012 1627.92 296.2C1594.14 301.719 1560.18 306.618 1526 310.457C1491.82 314.236 1457.44 317.076 1422.92 318.275C1414.28 318.495 1405.66 318.855 1397.01 318.885L1384.04 319.025L1371.06 318.925L1364.58 318.875L1358.09 318.705L1345.11 318.345C1340.78 318.205 1336.46 317.945 1332.13 317.756C1327.81 317.526 1323.48 317.386 1319.15 317.046C1310.51 316.436 1301.86 315.896 1293.23 315.026C1288.92 314.606 1284.6 314.266 1280.3 313.766L1267.38 312.247C1265.24 311.987 1263.08 311.767 1260.93 311.457L1254.49 310.547L1241.62 308.717L1228.79 306.568L1222.38 305.488C1220.25 305.128 1218.13 304.678 1216 304.278L1203.24 301.799C1198.99 300.969 1194.78 299.959 1190.54 299.049L1184.2 297.65L1181.03 296.95L1177.87 296.17L1165.28 293.031C1161.07 292.031 1156.92 290.821 1152.75 289.671L1140.27 286.172L1127.9 282.363L1121.72 280.443L1115.61 278.404L1103.41 274.314L1091.3 270.025C1083.22 267.216 1075.29 264.196 1067.3 261.277L1019.9 243.311C1004.17 237.322 988.455 231.533 972.701 225.964C964.807 223.275 956.935 220.475 948.988 218.016C945.026 216.776 941.074 215.426 937.09 214.267L925.127 210.777C921.153 209.558 917.127 208.578 913.121 207.528C909.105 206.518 905.11 205.388 901.073 204.469L888.96 201.789C886.942 201.369 884.934 200.839 882.894 200.509L876.795 199.42C860.57 196.23 844.164 194.571 827.683 193.321L815.282 192.861L809.076 192.631L802.86 192.681L790.416 192.761L777.962 193.361L771.735 193.661C769.663 193.801 767.58 194.011 765.508 194.181L753.054 195.261C748.91 195.7 744.765 196.25 740.621 196.73L734.405 197.48C732.332 197.71 730.271 198.09 728.199 198.38L715.787 200.27C711.654 200.909 707.542 201.729 703.408 202.449C695.141 203.849 686.938 205.638 678.713 207.318L675.626 207.958L672.55 208.658L666.409 210.058C662.318 211.017 658.205 211.887 654.125 212.907C645.965 214.947 637.772 216.886 629.633 219.066C564.372 235.952 499.964 257.478 433.432 272.675C425.154 274.664 416.769 276.334 408.427 278.094C406.344 278.554 404.251 278.953 402.147 279.323L395.845 280.493L389.543 281.653L386.392 282.233L383.23 282.733C374.782 284.032 366.365 285.472 357.852 286.432L351.486 287.232C349.361 287.492 347.256 287.802 345.12 287.962L332.346 289.121C328.094 289.571 323.811 289.731 319.539 289.961C315.266 290.161 311.005 290.461 306.732 290.571L293.904 290.721C291.768 290.721 289.632 290.821 287.495 290.741L281.087 290.541C276.814 290.381 272.553 290.311 268.291 290.091L255.538 289.081C253.412 288.891 251.286 288.761 249.172 288.531L242.838 287.702L230.159 286.022Z" fill="url(#paint3_linear)"/><defs><linearGradient id="paint0_linear" x1="3533.11" y1="100.245" x2="679.561" y2="467.666" gradientUnits="userSpaceOnUse"><stop stop-color="#A6DEF1"/><stop offset="1" stop-color="#8FB0BB"/></linearGradient><linearGradient id="paint1_linear" x1="3400.83" y1="269.735" x2="976.138" y2="-974.683" gradientUnits="userSpaceOnUse"><stop stop-color="#BBCBFF"/><stop offset="1" stop-color="#C8D5FF" stop-opacity="0"/></linearGradient><linearGradient id="paint2_linear" x1="2998.28" y1="138.543" x2="687.417" y2="706.748" gradientUnits="userSpaceOnUse"><stop stop-color="#0781EE"/><stop offset="1" stop-color="#75D6FF" stop-opacity=".86"/></linearGradient><linearGradient id="paint3_linear" x1="3281.95" y1="36.871" x2="117.615" y2="389.903" gradientUnits="userSpaceOnUse"><stop stop-color="#DBE9F7"/><stop offset="1" stop-color="#87A8FC" stop-opacity=".47"/></linearGradient></defs></svg>